<svg width="16" height="8" viewBox="0 0 16 8" fill="none" xmlns="http://www.w3.org/2000/svg">
<path fill-rule="evenodd" clip-rule="evenodd" d="M15.5696 7.48807C15.5055 7.56289 15.4272 7.62434 15.3393 7.66891C15.2514 7.71348 15.1556 7.74029 15.0574 7.74781C14.9591 7.75533 14.8603 7.74342 14.7667 7.71275C14.673 7.68208 14.5864 7.63325 14.5116 7.56907L7.99958 1.98807L1.48758 7.56907C1.33576 7.69094 1.14249 7.74899 0.948636 7.73096C0.754784 7.71293 0.575541 7.62023 0.448796 7.47244C0.322052 7.32466 0.257739 7.13338 0.269456 6.93905C0.281173 6.74471 0.367999 6.56255 0.51158 6.43106L7.51158 0.431065C7.6475 0.314602 7.82059 0.250588 7.99958 0.250588C8.17857 0.250588 8.35166 0.314602 8.48758 0.431065L15.4876 6.43106C15.6384 6.56055 15.7316 6.74461 15.7468 6.9428C15.762 7.141 15.6979 7.33711 15.5686 7.48807H15.5696Z" fill="#191919"/>
<path fill-rule="evenodd" clip-rule="evenodd" d="M15.5696 7.48807C15.5055 7.56289 15.4272 7.62434 15.3393 7.66891C15.2514 7.71348 15.1556 7.74029 15.0574 7.74781C14.9591 7.75533 14.8603 7.74342 14.7667 7.71275C14.673 7.68208 14.5864 7.63325 14.5116 7.56907L7.99958 1.98807L1.48758 7.56907C1.33576 7.69094 1.14249 7.74899 0.948636 7.73096C0.754784 7.71293 0.575541 7.62023 0.448796 7.47244C0.322052 7.32466 0.257739 7.13338 0.269456 6.93905C0.281173 6.74471 0.367999 6.56255 0.51158 6.43106L7.51158 0.431065C7.6475 0.314602 7.82059 0.250588 7.99958 0.250588C8.17857 0.250588 8.35166 0.314602 8.48758 0.431065L15.4876 6.43106C15.6384 6.56055 15.7316 6.74461 15.7468 6.9428C15.762 7.141 15.6979 7.33711 15.5686 7.48807H15.5696Z" fill="black" fill-opacity="0.2"/>
</svg>
