<svg width="79" height="160" viewBox="0 0 79 160" fill="none" xmlns="http://www.w3.org/2000/svg">
<path d="M9.12991 76.0502C7.13666 83.0269 7.32956 90.7113 11.4171 97.4444C14.5907 102.675 19.6886 106.517 24.8738 109.968C30.2014 113.517 35.8045 116.821 40.3375 121.293C44.494 125.397 47.4104 130.37 48.6458 135.766C50.4645 143.717 48.8111 151.741 46.1749 159.072C47.8696 155.657 49.5643 152.242 51.2545 148.832C49.4174 136.405 40.8519 125.462 28.6444 119.597C28.5755 119.565 23.4592 129.791 23.5649 129.837C35.7724 135.701 44.3378 146.644 46.1749 159.072C46.1473 158.879 46.9694 157.569 46.9603 157.592C47.5757 156.392 48.1773 155.188 48.7744 153.98C49.6149 152.288 50.6207 150.606 51.2591 148.832C55.4752 137.099 56.5729 123.467 47.0292 112.744C38.6842 103.373 25.1815 99.2093 17.7459 89.066C12.5607 81.9928 12.0233 73.4856 14.2141 65.8149C13.7226 67.5338 12.4137 69.2987 11.6146 70.9073C10.7879 72.5618 9.6397 74.2669 9.12991 76.0502Z" fill="#4F200E"/>
<path d="M75.9457 19.644C70.54 22.6039 61.9929 26.4277 50.6305 28.3029C37.454 30.4768 26.2477 29.0796 19.4183 27.7376C18.486 29.268 17.549 30.9364 16.6397 32.738C15.8589 34.2914 15.17 35.7943 14.5684 37.2328C22.1004 38.4462 33.022 39.3929 45.6979 37.6051C55.4207 36.2355 63.3019 33.6618 69.0887 31.2719C69.6306 30.6468 70.4665 29.6219 71.3345 28.2523C71.6239 27.7927 71.5642 27.8525 73.2773 24.7042C74.1177 23.16 74.5357 22.4016 75.1879 21.1377C75.5093 20.5081 75.7711 19.9887 75.9457 19.644Z" fill="#4F200E"/>
<path d="M48.3802 39.3146C39.5575 33.4409 29.922 29.3551 19.4046 27.6638C19.005 27.5994 16.874 32.2046 16.626 32.6642C16.3918 33.1008 14.325 37.6968 13.9668 37.7243C22.8997 39.1675 31.1436 42.2836 38.9191 46.8749C46.0516 51.0848 53.0693 56.3656 56.8124 63.5583C59.5083 68.7426 59.6599 71.9368 59.467 73.6143C59.196 75.9858 58.3005 77.7967 57.6024 78.9319C57.607 79.0468 57.5473 79.1479 57.4508 79.18C57.3865 79.203 57.3268 79.1938 57.2946 79.1846C57.2258 79.2536 57.1569 79.3225 57.0788 79.3823C55.655 80.4439 54.2956 81.5791 52.7157 82.4524C52.0038 82.8476 51.145 82.9304 50.3918 82.65C48.9175 83.0315 40.7378 85.0077 33.2976 80.4899C24.8516 75.3608 23.1615 65.3829 24.0065 59.353C24.2913 57.3308 24.8608 55.7268 25.3063 54.6743C22.8859 57.5698 21.0809 60.5434 19.749 63.5216C19.7261 63.5767 19.6985 63.6319 19.6756 63.687C19.6756 63.6916 19.671 63.7008 19.671 63.7054C16.0243 72.0701 17.7696 82.6086 25.8436 89.1165C34.5468 96.1254 47.1355 94.3192 54.1854 87.4252C54.2772 87.3379 54.3691 87.246 54.4517 87.1495C56.027 85.5363 57.1431 83.6703 58.227 81.7262C58.9434 80.4347 59.7012 79.1433 60.4361 77.8426C61.644 75.7055 62.8059 73.5362 63.674 71.2887C64.9875 67.8785 65.2171 64.1144 64.5971 60.4331C63.1045 51.5261 56.1694 44.4942 48.3802 39.3146Z" fill="#4F200E"/>
<path d="M70.1402 105.133C70.0897 113.107 67.3157 120.194 63.6599 127.088C62.4336 129.386 61.2395 131.716 59.9122 133.959C59.1268 135.292 59.8617 133.9 60.3806 132.911C60.4036 132.824 60.9639 131.712 61.0971 131.409C61.4002 130.742 61.6758 130.066 61.9422 129.386C62.3463 128.338 62.7046 127.272 63.0307 126.197C63.6231 124.193 64.0732 122.143 64.3488 120.061C64.73 117.225 64.8034 114.334 64.5279 111.444C63.7333 103.047 60.0821 95.1187 54.6397 88.1788C53.4181 86.6161 52.1 85.0949 50.7038 83.6379C43.2865 75.8845 33.6509 69.7121 23.6342 66.0078C23.1428 61.3796 23.9189 57.7304 25.2187 54.8626C25.2462 54.7982 25.2738 54.7385 25.3059 54.6787C29.8252 56.0989 35.7406 58.4244 42.051 62.3218C50.4695 67.5199 56.1278 73.3751 59.5586 77.5161C59.7285 77.7275 59.8984 77.9343 60.0683 78.1458C60.2061 78.3204 60.3439 78.4951 60.4817 78.6743C60.5368 78.7386 60.5827 78.803 60.6333 78.8719C62.6081 81.4365 64.335 84.1527 65.7679 87.0022C68.6476 92.7426 70.1769 98.9701 70.1402 105.133Z" fill="#4F200E"/>
<path d="M23.6392 118.315C22.2981 120.65 19.8547 121.854 18.8765 122.318C16.4378 123.485 13.9898 123.848 12.4604 123.972C13.1402 123.582 14.1873 122.856 14.7936 121.702C14.9864 121.334 15.1059 120.98 15.1702 120.673C16.8373 120.204 17.9763 119.694 18.7663 119.243C18.656 119.11 18.5045 118.977 18.2978 118.834C17.6594 118.398 16.8144 118.177 15.9739 118.085C14.1138 117.874 12.3043 118.237 10.752 118.889C11.0091 118.779 11.2893 118.223 11.4592 118.025C12.0379 117.336 12.6304 116.651 13.2228 115.971C13.8153 115.286 14.4078 114.606 15.0094 113.926C15.0829 113.838 15.5376 113.19 15.7718 113.089C17.7742 112.257 20.9846 111.674 23.0926 112.91C23.6392 113.227 23.8826 113.609 24.0112 113.788C25.265 115.493 24.1444 117.432 23.6392 118.315Z" fill="#FE6601"/>
<path d="M20.428 54.2378C18.3153 57.91 14.4712 59.8035 12.9327 60.5389C9.09313 62.3773 5.24442 62.9426 2.83324 63.1402C3.90334 62.5289 5.55214 61.3845 6.50283 59.5691C6.80595 58.9854 6.98966 58.4339 7.09529 57.9468C9.72234 57.2068 11.5135 56.4071 12.7535 55.6947C12.579 55.4879 12.3402 55.2719 12.0187 55.0467C11.0129 54.3573 9.681 54.0126 8.36288 53.8655C5.43272 53.5346 2.58982 54.1091 0.146484 55.1294C0.550645 54.9594 0.991547 54.0815 1.25793 53.769C2.17188 52.6844 3.09962 51.6089 4.03194 50.5335C4.96426 49.458 5.89659 48.3825 6.84729 47.3163C6.9667 47.183 7.67857 46.1581 8.05058 46.0018C11.2012 44.692 16.2486 43.7774 19.5692 45.7169C20.4326 46.2178 20.8092 46.8153 21.0159 47.1003C22.9862 49.7981 21.2225 52.8498 20.428 54.2378Z" fill="#FE6601"/>
<path d="M13.2134 27.7099C13.342 31.3223 10.5267 34.3557 6.9168 34.4844C3.30691 34.6131 0.275705 31.7957 0.147108 28.1833C0.0139192 24.5709 2.83386 21.5375 6.44375 21.4088C10.049 21.2755 13.0803 24.0975 13.2134 27.7099Z" fill="#FE6601"/>
<path d="M44.2283 17.6995C44.3523 21.0867 41.7069 23.9316 38.3221 24.0511C34.9372 24.1752 32.0943 21.5279 31.9749 18.1407C31.8509 14.7535 34.4963 11.9085 37.8811 11.7891C41.2614 11.6696 44.1043 14.3122 44.2283 17.6995Z" fill="#FE6601"/>
<path d="M58.6814 17.6995C58.8054 21.0867 56.16 23.9316 52.7752 24.0511C49.3903 24.1752 46.552 21.5279 46.428 18.1407C46.304 14.7535 48.9494 11.9085 52.3343 11.7891C55.7191 11.6696 58.562 14.3122 58.6814 17.6995Z" fill="#FE6601"/>
<path d="M65.1715 3.27773C55.1593 8.08972 44.0127 10.4934 33.8536 10.02C32.4115 9.95109 30.8867 9.18816 29.6421 8.82048C28.6546 8.53093 27.6718 8.23679 26.6935 7.93805C26.3445 7.83234 25.8806 7.57037 25.4902 7.55199C35.6448 8.02078 46.7959 5.62168 56.8081 0.809692C57.3179 0.566105 60.519 1.86217 61.0196 2.00924C62.0071 2.29879 62.9899 2.59293 63.9682 2.89167C64.1197 2.93763 65.0704 3.32369 65.1715 3.27773Z" fill="#FE6601"/>
<path d="M77.7092 102.459C76.3819 109.05 73.4793 113.797 71.4769 116.527C72.7032 112.579 74.4254 104.932 72.3679 95.3812C70.7972 88.092 67.6374 82.5354 65.3594 79.1666C66.1539 77.9073 67.0908 76.0919 67.6879 73.7617C68.363 71.142 68.3584 68.844 68.2253 67.2446C71.826 72.0198 76.3865 79.5664 77.9113 89.1858C78.9906 95.9971 77.9756 101.135 77.7092 102.459Z" fill="#FE6601"/>
<path d="M57.2717 127.815C58.4429 124.901 60.6704 118.071 58.7093 109.371C57.2166 102.762 53.9558 97.95 51.9304 95.3809C50.3918 96.3322 47.9393 97.5915 44.6279 98.3223C41.0318 99.1174 37.9179 98.9611 35.9385 98.7175C38.9605 100.129 44.8622 103.332 49.8315 109.527C55.9306 117.143 57.0145 124.768 57.2717 127.815Z" fill="#FE6601"/>
<path d="M67.1779 54.6744C66.4109 49.6831 67.3525 46.3465 68.3123 44.2599C69.658 41.3231 71.2471 40.4039 72.7351 37.32C74.4896 33.6754 74.5952 30.1456 74.4436 27.8477C73.9706 29.516 73.1025 31.5888 71.4446 33.5696C66.1124 39.9489 57.1107 40.05 55.3838 40.0408C56.8581 40.7256 58.6217 41.7367 60.3669 43.2304C65.2444 47.4035 66.7049 52.5372 67.1779 54.6744Z" fill="#FE6601"/>
</svg>
